<svg width="110" height="50" fill="#FFF" xmlns="http://www.w3.org/2000/svg"><path d="M95.36 21.78c-.67-2.02-2.02-2.4-3.18-2.4-2.11 0-3.06 1.31-3.06 2.52 0 1.52.73 2.11 2.23 2.67l1.75.65c2.5.9 4.07 1.8 4.07 4.35 0 2.17-1.29 4.28-4.96 4.28-3.12 0-4.71-1.8-5.2-3.78l1.4-.47c.62 1.96 1.84 2.92 3.74 2.92 2.45 0 3.46-1.24 3.46-2.92 0-1.64-1.14-2.3-2.6-2.82l-1.9-.69c-2.18-.77-3.55-1.73-3.55-4 0-2.08 1.71-4 4.68-4 2.36 0 3.73 1.11 4.5 3.32l-1.38.37z"/><path d="M109.5 19.58h-2.66c.67.68 1.28 1.4 1.28 3.32 0 2.11-1.25 4.75-5.47 4.75a4 4 0 01-1.26-.16c-.21.1-.98.75-.98 1.43 0 .78.22.84 3.12 1.52l.92.22c2.05.47 4.68 1.09 4.68 3.97 0 2.6-2.35 4.1-6.33 4.1-3.4 0-5.85-1.15-5.85-3.79 0-1.9 1.47-2.95 2.97-4.03-.4-.16-1.1-.44-1.1-1.43 0-1.06.58-1.61 1.47-2.33a4.24 4.24 0 01-2.76-4.25c0-2.7 1.75-4.9 5.2-4.9.93 0 1.5.09 2.12.3h4.59v1.28h.06zm-8.14 11.8c-.21 0-2.82 1.48-2.82 3.31 0 1.68 1.44 2.67 4.47 2.67 2.39 0 4.6-.77 4.6-2.82 0-1.43-.8-1.86-3.74-2.58l-2.51-.59zm5.2-8.6c0-2.18-1.5-3.51-3.64-3.51-2.2 0-3.73 1.3-3.73 3.5 0 2.49 1.8 3.64 3.64 3.64 1.93 0 3.73-1.15 3.73-3.63z"/><path d="M9.6 21.78c-.67-2.01-2.01-2.42-3.18-2.42-2.1 0-3.06 1.3-3.06 2.52 0 1.52.74 2.1 2.24 2.67l1.74.65c2.51.9 4.07 1.8 4.07 4.34 0 2.17-1.28 4.29-4.96 4.29-3.12 0-4.71-1.8-5.2-3.8l1.4-.46c.62 1.96 1.84 2.92 3.74 2.92 2.45 0 3.46-1.24 3.46-2.92 0-1.64-1.13-2.3-2.6-2.82l-1.9-.68c-2.2-.81-3.58-1.77-3.58-4.04 0-2.08 1.71-4 4.68-4 2.36 0 3.74 1.11 4.5 3.32l-1.34.43z"/><path d="M23.74 19.58h-2.66c.67.68 1.29 1.4 1.29 3.32 0 2.11-1.26 4.75-5.48 4.75a4 4 0 01-1.26-.16c-.21.1-.98.75-.98 1.43 0 .78.22.84 3.13 1.52l.91.22c2.05.47 4.69 1.09 4.69 3.97 0 2.6-2.36 4.1-6.34 4.1-3.4 0-5.84-1.15-5.84-3.79 0-1.9 1.46-2.95 2.96-4.03-.4-.16-1.1-.44-1.1-1.43 0-1.06.58-1.61 1.47-2.33a4.24 4.24 0 01-2.75-4.25c0-2.7 1.74-4.9 5.2-4.9.92 0 1.5.09 2.11.3h4.6v1.28h.05zm-8.14 11.8c-.21 0-2.81 1.48-2.81 3.31 0 1.68 1.44 2.67 4.47 2.67 2.38 0 4.59-.77 4.59-2.82 0-1.43-.8-1.86-3.74-2.58l-2.5-.59zm5.2-8.6c0-2.18-1.5-3.51-3.64-3.51-2.17 0-3.73 1.27-3.73 3.5 0 2.49 1.8 3.64 3.64 3.64 1.93 0 3.74-1.15 3.74-3.63zM32.31 22.56c-.42-1.03-.7-1.74-2.14-1.74-1.2 0-1.62.53-1.62 1.27 0 .87 1.1 1.09 2.51 1.46l1.62.47c2.39.68 3.74 2.2 3.74 4.62 0 4.5-3.92 5.22-6.5 5.22-5.04 0-5.9-3.05-6.33-4l4.04-1.19a2.22 2.22 0 002.24 1.83c1.1 0 1.74-.65 1.74-1.36 0-.93-.37-1.12-1.6-1.46l-2.75-.78c-1.74-.52-3.36-1.67-3.36-4.31 0-5.03 5.23-5.03 6.24-5.03 4.68 0 5.6 2.42 6.1 3.73l-3.93 1.27zM37.18 17.93h4.8v2.08c1.6-1.77 3-2.45 4.5-2.45 2.18 0 3.22 1.12 3.71 2.45 1.29-1.11 2.66-2.45 4.99-2.45 3.8 0 3.8 3.1 3.8 4.94V33.5h-4.84v-9.55c0-1.15-.06-2.43-1.47-2.43-.52 0-.98.1-2.2 1.46v10.52h-4.8v-9.55c0-1.15-.07-2.43-1.48-2.43-.52 0-.98.1-2.2 1.46v10.52h-4.8V17.93zM74.27 25.79v1.24h-9.51c0 1.02 0 3.35 2.38 3.35 1.56 0 2.08-1.15 2.42-1.9l4.04 1.34c-1.38 2.95-3.43 4-6.55 4-6.09 0-7.22-5.27-7.22-8.1 0-4.53 2.48-8.22 7.22-8.22 4.04.06 7.22 2.51 7.22 8.29zm-4.7-1.93c-.07-1-.28-3.04-2.34-3.04-2.23 0-2.5 2.08-2.5 3.04h4.83z"/><path d="M80.15 32.55l5.27-3.75v5.34l-5.27 3.78v-5.37z" fill-opacity=".75"/><path d="M75.07 28.74l5.23-3.8 5.12 3.86-5.27 3.75-5.08-3.81z" fill-opacity=".5"/><path d="M80.15 32.55v5.37l-5.08-3.85v-5.33l5.08 3.81z"/></svg>