<svg width="165" height="50" fill="#FFF" xmlns="http://www.w3.org/2000/svg"><path d="M29.6 23.94c.34.22.68 0 .56-.45l-1.79-3.14h-.67L16.5 40.2c-.46.45-1.13.45-1.35 0l-3.81-6.4-.23-.89v-5.6c0-.57-.22-.9-.56-1.13L1.6 18.33c-.56-.34-.34-1.12.44-1.12h16.03l3.92 2.24c.23.23.23.45 0 .56l-1.57 2.92c0 .22-.22.34-.33.22l-3.14-1.68-.67-.22h-4.15c-.34 0-.45.45-.22.67l2.8 2.24c.33.34.45.79.45 1.12v7.4c0 .46.56.57.78.23L27.6 12.72c.22-.33 1.12-.33 1.12 0L40.7 33.47c.56.68-.23 1.35-.9 1.12l-13.9-8.18c-.22 0-.33-.34-.22-.45l1.68-2.8c0-.23.34-.23.56-.23l1.68 1.12v-.11zM154.11 23.16l1.57 4.82h-3.36l1.9-4.82h-.1zm-7.17 10.09h3.81l.9-2.47h4.82l.9 2.47h3.8l-5.26-14.02h-3.7l-5.27 14.02zm-4.48 0h3.8V19.23h-3.8v14.02zm-12.33-4.82c0 3.36 2.69 4.82 5.83 4.82 2.91 0 5.83-1.12 5.83-4.49 0-2.46-2.02-3.36-3.93-3.92-2.13-.56-4.03-.56-4.03-1.68 0-.9 1.12-1.13 1.68-1.13 1.12 0 2.24.34 2.24 1.57h3.36c0-3.02-2.69-4.48-5.38-4.48-2.57 0-5.6 1.12-5.6 4.26 0 2.47 2.24 3.36 4.03 3.81 2.02.56 3.93.79 3.93 2.02 0 1.12-1.12 1.35-2.24 1.35-1.46 0-2.47-.56-2.47-2.25h-3.36l.11.12zm-6.39-5.27l1.57 4.82h-3.36l1.9-4.82h-.1zm-7.06 10.09h3.7l.9-2.47h4.93l.9 2.47h3.8l-5.26-14.02h-3.81l-5.16 14.02zm-12.33 0h1.46V21.36L114 33.25h1.57V19.23h-1.34v11.78l-8.3-11.67h-1.56v13.91zm-2.9 0h1.34V19.23h-1.35v14.02zm-13.9 0h3.7v-5.6h4.81v5.6h3.59V19.23h-3.59v5.05h-4.82v-4.94h-3.7v13.91zm-1.13-8.97c0-3.14-3.02-5.05-5.94-5.05-4.03 0-6.72 3.14-6.72 7.07 0 3.8 2.69 6.95 6.72 6.95 3.37 0 5.94-2.02 6.17-5.6h-3.36c-.23 1.67-1.12 2.57-2.8 2.57-2.25 0-3.14-2.02-3.14-3.92 0-2.02.9-4.04 3.13-4.04 1.46 0 2.58.67 2.7 2.02h3.36-.12zM62.1 33.25h11.44v-3.14h-7.85v-2.7h6.95v-2.8h-6.72v-2.58h7.4v-2.69H62.1v13.91zm-1.12-14.02H49.22v3.14h4.14v10.88h3.7V22.37h4.15v-3.14h-.23z"/></svg>